# xmcd
#
# Track frame offsets: 
#        150
#        19196
#        36567
#        52559
#        67000
#        91971
#        106600
#        116914
#        132246
#        146432
#        164127
#        176697
#        193858
#        198472
#        203509
#
# Disc length: 2973 seconds
#
# Revision: 0
# Processed by: cddbd v1.4PL0 Copyright (c) Steve Scherf et al.
# Submitted via: ExactAudioCopy v0.90b4
#
DISCID=d80b9b0f
DTITLE=Papouskovo sirotci - Zive z jihu
DYEAR=2001
DGENRE=Country
TTITLE0=Carodejka
TTITLE1=Blues Folsomske veznice
TTITLE2=Rehradice
TTITLE3=Holky z nevestince
TTITLE4=Cikanskej jarmark
TTITLE5=Cekej tise
TTITLE6=Divka s dolicky
TTITLE7=Kazdy rano
TTITLE8=Ja milou daleko mam
TTITLE9=Tece voda tece
TTITLE10=Za lasamy za guramy
TTITLE11=Ukazte mi cestu dom
TTITLE12=Pochod padlych revolucionaru
TTITLE13=Katusa
TTITLE14=Carodejka - Remix
EXTD=
EXTT0=
EXTT1=
EXTT2=
EXTT3=
EXTT4=
EXTT5=
EXTT6=
EXTT7=
EXTT8=
EXTT9=
EXTT10=
EXTT11=
EXTT12=
EXTT13=
EXTT14=
PLAYORDER=
